<?xml version="1.0" encoding="UTF-8"?>
<svg version="1.1" xmlns="http://www.w3.org/2000/svg" width="596" height="208">
<path d="M0 0 C196.68 0 393.36 0 596 0 C596 68.64 596 137.28 596 208 C399.32 208 202.64 208 0 208 C0 139.36 0 70.72 0 0 Z " fill="#203C2D" transform="translate(0,0)"/>
<path d="M0 0 C6.04167529 3.61784113 10.62468786 9.40660687 13 16 C14.10334206 25.80314536 14.06618612 35.9684576 8.1875 44.25 C4.11200044 49.2949145 -0.28110471 53.42445334 -6.96166992 54.23925781 C-23.68002644 55.24897848 -23.68002644 55.24897848 -29.46875 50.5390625 C-30.22671875 49.77722656 -30.22671875 49.77722656 -31 49 C-31.81984375 48.23816406 -31.81984375 48.23816406 -32.65625 47.4609375 C-38.40352119 41.51645603 -41.16551481 34.3329371 -41.5625 26.125 C-41.22542075 17.67627167 -38.49879441 9.86136915 -32.25 4 C-22.03188655 -3.84091633 -11.8747105 -5.18778881 0 0 Z " fill="#304228" transform="translate(155,57)"/>
<path d="M0 0 C5.25490444 3.3862423 9.48587837 8.7418117 11.37890625 14.71484375 C13.16301449 24.80871738 12.92391814 36.63103144 7.3359375 45.515625 C3.5747696 50.24713987 -0.19242641 53.11959425 -6.1875 54.16796875 C-13.53798969 54.9516242 -20.20500899 54.90578043 -26.1875 50.16796875 C-32.91918089 43.51295849 -35.27669907 35.45649912 -35.5625 26.16796875 C-35.27669907 16.87943838 -32.91918089 8.82297901 -26.1875 2.16796875 C-19.01457511 -3.51260264 -8.20967553 -3.64304352 0 0 Z " fill="#223E2E" transform="translate(359.1875,57.83203125)"/>
<path d="M0 0 C3.83307169 -0.11719175 7.66567608 -0.18758077 11.5 -0.25 C12.57765625 -0.28351562 13.6553125 -0.31703125 14.765625 -0.3515625 C21.29815334 -0.43122748 26.66125349 -0.06442259 32 4 C35.30312675 7.86845968 36.74277927 11.74220527 36.44921875 16.9453125 C35.58762768 20.88615514 33.66404105 24.00553526 31 27 C27.6875 29 27.6875 29 25 30 C25.85207031 30.94359375 26.70414062 31.8871875 27.58203125 32.859375 C31.43374706 37.35247785 34.53525461 42.25316142 37.6875 47.25 C38.81294878 49.02823462 39.94172371 50.80436958 41.07421875 52.578125 C41.81031372 53.74456543 41.81031372 53.74456543 42.5612793 54.93457031 C43.90025917 56.85681191 45.28793209 58.40947463 47 60 C43.5221646 60.56309866 40.46036162 60.74381002 37 60 C34.14113868 57.42657294 32.53208373 54.31499667 30.75 50.9375 C24.70492736 39.13060183 24.70492736 39.13060183 14.125 32.0625 C12.75614643 31.68527468 11.38273759 31.32263877 10 31 C10.08087857 35.08414438 10.19372403 39.16679586 10.3125 43.25 C10.33505859 44.40886719 10.35761719 45.56773438 10.38085938 46.76171875 C10.41630859 47.87675781 10.45175781 48.99179688 10.48828125 50.140625 C10.51446533 51.16704102 10.54064941 52.19345703 10.56762695 53.25097656 C10.85119517 56.4521709 10.85119517 56.4521709 14 60 C9.05 60 4.1 60 -1 60 C0.98 57.525 0.98 57.525 3 55 C3.58841906 52.47891163 3.58841906 52.47891163 3.50170898 49.81420898 C3.51108994 48.80643906 3.52047089 47.79866913 3.53013611 46.76036072 C3.51328514 45.14454857 3.51328514 45.14454857 3.49609375 43.49609375 C3.49754898 42.38065689 3.49900421 41.26522003 3.50050354 40.11598206 C3.49884581 37.76162093 3.48729875 35.40724882 3.46655273 33.05297852 C3.43757603 29.44696116 3.44595182 25.84241204 3.45898438 22.23632812 C3.45274754 19.94790951 3.44435703 17.65949555 3.43359375 15.37109375 C3.43652939 14.29186142 3.43946503 13.21262909 3.44248962 12.10069275 C3.42980545 11.09607498 3.41712128 10.09145721 3.40405273 9.05639648 C3.39864975 8.17435043 3.39324677 7.29230438 3.38768005 6.38352966 C2.92592125 3.54454995 1.87436038 2.14028377 0 0 Z " fill="#EFEBDA" transform="translate(383,54)"/>
<path d="M0 0 C6.27 0 12.54 0 19 0 C17.35 1.32 15.7 2.64 14 4 C13.22807953 6.68363658 13.22807953 6.68363658 13.29296875 9.640625 C13.26485107 10.60516602 13.2367334 11.56970703 13.20776367 12.56347656 C13.20107666 13.7800293 13.19438965 14.99658203 13.1875 16.25 C13.0946875 22.06625 13.0946875 22.06625 13 28 C24.22 28 35.44 28 47 28 C46.938125 24.1225 46.87625 20.245 46.8125 16.25 C46.80581299 15.03344727 46.79912598 13.81689453 46.79223633 12.56347656 C46.76411865 11.59893555 46.73600098 10.63439453 46.70703125 9.640625 C46.6913208 8.65610352 46.67561035 7.67158203 46.65942383 6.65722656 C46.09927462 3.24928098 46.09927462 3.24928098 41 0 C47.27 0 53.54 0 60 0 C58.35 1.32 56.7 2.64 55 4 C54.28178955 6.64636512 54.28178955 6.64636512 54.43237305 9.59472656 C54.4327507 10.71558655 54.43312836 11.83644653 54.43351746 12.99127197 C54.45932388 14.19555847 54.48513031 15.39984497 54.51171875 16.640625 C54.52233086 18.49660309 54.52233086 18.49660309 54.53315735 20.39007568 C54.55639826 23.67197726 54.60128045 26.95264431 54.65667725 30.23413086 C54.7079223 33.58565901 54.73025575 36.93724022 54.75585938 40.2890625 C54.81100265 46.85985763 54.89468735 53.42982786 55 60 C56.65 60.33 58.3 60.66 60 61 C60 61.33 60 61.66 60 62 C53.73 62 47.46 62 41 62 C42.65 60.68 44.3 59.36 46 58 C46.77535652 55.02120111 46.77535652 55.02120111 46.70703125 51.703125 C46.73514893 50.61676758 46.7632666 49.53041016 46.79223633 48.41113281 C46.79892334 47.03795898 46.80561035 45.66478516 46.8125 44.25 C46.874375 39.8775 46.93625 35.505 47 31 C35.78 31 24.56 31 13 31 C13.061875 35.3725 13.12375 39.745 13.1875 44.25 C13.19418701 45.62317383 13.20087402 46.99634766 13.20776367 48.41113281 C13.24994019 50.04066895 13.24994019 50.04066895 13.29296875 51.703125 C13.31653442 53.36843262 13.31653442 53.36843262 13.34057617 55.06738281 C13.84292574 58.72823424 13.84292574 58.72823424 19 62 C12.73 62 6.46 62 0 62 C1.65 60.68 3.3 59.36 5 58 C5.74956856 55.46702441 5.74956856 55.46702441 5.64697266 52.65234375 C5.67061386 51.05048218 5.67061386 51.05048218 5.69473267 49.41625977 C5.67955093 47.69427368 5.67955093 47.69427368 5.6640625 45.9375 C5.66884613 44.75406006 5.67362976 43.57062012 5.67855835 42.35131836 C5.68196012 39.84975861 5.67273858 37.34815458 5.65185547 34.84667969 C5.62509751 31.01396719 5.65159781 27.18418371 5.68359375 23.3515625 C5.68028971 20.92186852 5.67388359 18.49217637 5.6640625 16.0625 C5.67418365 14.91450928 5.68430481 13.76651855 5.69473267 12.58374023 C5.67897186 11.51583252 5.66321106 10.4479248 5.64697266 9.34765625 C5.64299469 8.40929932 5.63901672 7.47094238 5.63491821 6.50415039 C5.07393217 3.23451667 5.07393217 3.23451667 0 0 Z " fill="#D0D1C0" transform="translate(487,53)"/>
<path d="M0 0 C4.62 0 9.24 0 14 0 C13.01 1.485 13.01 1.485 12 3 C11.63250611 5.61289494 11.63250611 5.61289494 11.5859375 8.54296875 C11.53252197 9.99352661 11.53252197 9.99352661 11.47802734 11.47338867 C11.44402832 12.69904541 11.4100293 13.92470215 11.375 15.1875 C11.25125 19.085625 11.1275 22.98375 11 27 C22.22 27 33.44 27 45 27 C44.896875 23.101875 44.79375 19.20375 44.6875 15.1875 C44.66260498 13.96184326 44.63770996 12.73618652 44.61206055 11.47338867 C44.57894775 10.5063501 44.54583496 9.53931152 44.51171875 8.54296875 C44.48553467 7.55321045 44.45935059 6.56345215 44.43237305 5.54370117 C44.18558494 2.60696999 44.18558494 2.60696999 41 0 C45.95 0 50.9 0 56 0 C55.01 0.99 54.02 1.98 53 3 C52.56475814 5.56187175 52.56475814 5.56187175 52.65942383 8.48120117 C52.65965042 9.60213669 52.65987701 10.7230722 52.66011047 11.87797546 C52.67559433 13.08742325 52.69107819 14.29687103 52.70703125 15.54296875 C52.71339851 17.40106926 52.71339851 17.40106926 52.71989441 19.29670715 C52.73385267 22.58649001 52.76079787 25.87583203 52.79400635 29.16546631 C52.82472067 32.52366746 52.83840261 35.88193318 52.85351562 39.24023438 C52.88662641 45.82699574 52.93685743 52.4134618 53 59 C54.65 59.33 56.3 59.66 58 60 C58 60.33 58 60.66 58 61 C51.73 61 45.46 61 39 61 C42 59 42 59 44 59 C44.33 49.43 44.66 39.86 45 30 C33.78 30 22.56 30 11 30 C11.061875 34.3725 11.12375 38.745 11.1875 43.25 C11.19418701 44.62317383 11.20087402 45.99634766 11.20776367 47.41113281 C11.24994019 49.04066895 11.24994019 49.04066895 11.29296875 50.703125 C11.31653442 52.36843262 11.31653442 52.36843262 11.34057617 54.06738281 C11.84292574 57.72823424 11.84292574 57.72823424 17 61 C10.73 61 4.46 61 -2 61 C-0.35 59.68 1.3 58.36 3 57 C3.7366292 54.45871077 3.7366292 54.45871077 3.61523438 51.63647461 C3.6291925 50.0297715 3.6291925 50.0297715 3.64343262 48.39060974 C3.61883972 46.66391808 3.61883972 46.66391808 3.59375 44.90234375 C3.59379028 43.71653214 3.59383057 42.53072052 3.59387207 41.30897522 C3.58851201 38.80317889 3.57090892 36.29738326 3.54199219 33.79174805 C3.50012023 29.94853574 3.50092424 26.10707387 3.5078125 22.26367188 C3.49732109 19.83071694 3.48438327 17.39777107 3.46875 14.96484375 C3.46854858 13.81169174 3.46834717 12.65853973 3.46813965 11.47044373 C3.45222778 10.40246048 3.43631592 9.33447723 3.41992188 8.23413086 C3.41150269 7.29355331 3.4030835 6.35297577 3.39440918 5.38389587 C3.16934409 2.58714071 3.16934409 2.58714071 0 0 Z " fill="#D7D7C6" transform="translate(52,53)"/>
<path d="M0 0 C5.28 0 10.56 0 16 0 C15.34 0.66 14.68 1.32 14 2 C13.58904176 7.15278403 14.44157496 11.18930092 16.0625 16.0625 C16.51579349 17.44916368 16.96890749 18.83588605 17.421875 20.22265625 C17.67130859 20.97434082 17.92074219 21.72602539 18.17773438 22.50048828 C19.76339198 27.32054844 21.28009089 32.16280857 22.8125 37 C23.42272848 38.91680954 24.03336879 40.83348805 24.64453125 42.75 C24.90596924 43.56984375 25.16740723 44.3896875 25.43676758 45.234375 C25.71556763 46.10835937 25.71556763 46.10835937 26 47 C28.18807439 43.71788842 29.37544728 40.43234884 30.63671875 36.734375 C31.00226616 35.66694061 31.00226616 35.66694061 31.37519836 34.57794189 C31.88789415 33.07253465 32.39793896 31.56622233 32.90551758 30.05908203 C33.68159549 27.76743516 34.47820098 25.48359216 35.27539062 23.19921875 C35.77212537 21.73220769 36.26760879 20.26477221 36.76171875 18.796875 C37.0012175 18.12058044 37.24071625 17.44428589 37.48747253 16.74749756 C39.00235213 12.13961541 39.36508931 8.67650695 38 4 C35.525 2.02 35.525 2.02 33 0 C38.28 0 43.56 0 49 0 C48.34 0.99 47.68 1.98 47 3 C47.26818915 9.16835042 49.43526828 14.91199087 51.29638672 20.75634766 C52.14456625 23.46098675 52.96564808 26.17325529 53.78515625 28.88671875 C54.0982373 29.923125 54.41131836 30.95953125 54.73388672 32.02734375 C55.36523289 34.11954671 55.99577823 36.21199152 56.62548828 38.3046875 C57.06417236 39.75294922 57.06417236 39.75294922 57.51171875 41.23046875 C57.77428467 42.10082764 58.03685059 42.97118652 58.30737305 43.86791992 C58.94805352 46.02026191 58.94805352 46.02026191 60 48 C60.35827881 46.92516357 60.71655762 45.85032715 61.08569336 44.74291992 C65.05712891 32.82861328 69.02856445 20.91430664 73 9 C73.33338596 5.45812169 73.33338596 5.45812169 73 2 C72.01 1.34 71.02 0.68 70 0 C74.29 0 78.58 0 83 0 C82.0925 0.9075 81.185 1.815 80.25 2.75 C77.7534446 5.69391503 76.40533674 8.19217302 75.28125 11.875 C73.39487564 17.81264815 71.38673745 23.69787679 69.328125 29.578125 C68.99862854 30.52185974 68.66913208 31.46559448 68.32965088 32.43792725 C67.30393007 35.37557533 66.27698509 38.3127937 65.25 41.25 C64.54549531 43.26689998 63.8410676 45.28382684 63.13671875 47.30078125 C61.42536657 52.20083133 59.71297264 57.10051618 58 62 C55.74582357 59.74582357 55.26325864 58.29232231 54.265625 55.29296875 C53.94150635 54.32311035 53.6173877 53.35325195 53.28344727 52.35400391 C52.94240967 51.30905762 52.60137207 50.26411133 52.25 49.1875 C51.89800537 48.12192871 51.54601074 47.05635742 51.18334961 45.95849609 C48.02894487 36.30594613 45.20629004 26.5706742 42.53735352 16.77392578 C42.03011114 14.91963437 42.03011114 14.91963437 41 13 C40.52820313 14.66675781 40.52820313 14.66675781 40.046875 16.3671875 C39.61485393 17.86986949 39.18254673 19.37246924 38.75 20.875 C38.54503906 21.60203125 38.34007812 22.3290625 38.12890625 23.078125 C36.70721391 27.98942581 34.96063378 32.66969887 33.02148438 37.3984375 C30.89561223 42.8127046 29.21784574 48.39046104 27.46875 53.93554688 C27.17742187 54.83466797 26.88609375 55.73378906 26.5859375 56.66015625 C26.19994385 57.87650757 26.19994385 57.87650757 25.80615234 59.11743164 C25 61 25 61 23 62 C22.62488281 60.80246094 22.24976563 59.60492188 21.86328125 58.37109375 C21.34667818 56.72646069 20.82972483 55.08193763 20.3125 53.4375 C20.03921875 52.56851074 19.7659375 51.69952148 19.484375 50.80419922 C17.87993914 45.72317474 16.22190022 40.66730717 14.5 35.625 C12.10241646 28.54052734 10.07917993 21.36659112 8.14257812 14.14306641 C5.90951604 5.89291867 5.90951604 5.89291867 0 0 Z " fill="#EFECDB" transform="translate(240,53)"/>
<path d="M0 0 C9.3046169 -1.06001965 9.3046169 -1.06001965 13.04296875 1.27734375 C14.84417367 3.09503568 16.4251952 4.98348165 18 7 C19.12006183 8.27518777 20.2451717 9.54595732 21.375 10.8125 C21.94992188 11.47894531 22.52484375 12.14539063 23.1171875 12.83203125 C25.2157532 15.24842951 27.354397 17.62529024 29.5 20 C32.76145125 23.61404058 35.98359155 27.25789354 39.1796875 30.9296875 C42.01455369 34.15389154 44.90271419 37.32970335 47.7890625 40.5078125 C50.25693671 43.28962124 52.6243514 46.13910418 55 49 C55.07597206 42.50390094 55.12856672 36.00791615 55.16479492 29.51147461 C55.17989525 27.30081908 55.20037709 25.09019357 55.22631836 22.87963867 C55.26264655 19.70484007 55.27971384 16.53043703 55.29296875 13.35546875 C55.30845261 12.36475876 55.32393646 11.37404877 55.33988953 10.35331726 C55.34022942 8.97222527 55.34022942 8.97222527 55.34057617 7.56323242 C55.34723801 6.7527092 55.35389984 5.94218597 55.36076355 5.10710144 C55.13260805 2.55497252 55.13260805 2.55497252 52 0 C55.3 0 58.6 0 62 0 C61.51391769 0.7072673 61.02783539 1.41453461 60.52702332 2.14323425 C58.83569314 5.30738641 58.60777386 7.15123591 58.56762695 10.70825195 C58.54783279 11.82903641 58.52803864 12.94982086 58.50764465 14.10456848 C58.49805977 15.9032563 58.49805977 15.9032563 58.48828125 17.73828125 C58.47033005 18.97418503 58.45237885 20.21008881 58.43388367 21.48344421 C58.38894759 24.75656242 58.35661884 28.02948364 58.33044434 31.30279541 C58.30057573 34.64797721 58.25381932 37.9928759 58.20898438 41.33789062 C58.12402264 47.89181834 58.05568495 54.44576169 58 61 C56.89416214 60.06517665 55.79020197 59.12813188 54.68701172 58.19018555 C53.76455154 57.40782784 53.76455154 57.40782784 52.82345581 56.60966492 C50.0690094 54.1781633 47.59327159 51.52967642 45.125 48.8125 C44.6103418 48.25151611 44.09568359 47.69053223 43.56542969 47.11254883 C39.56188133 42.710758 35.81096827 38.13166626 32.0859375 33.4921875 C29.53160364 30.44038038 26.76922126 27.68173304 23.91796875 24.91015625 C19.57122316 20.58111635 15.66199915 15.9149392 12 11 C11.84788222 17.33513627 11.74280024 23.66980202 11.67041016 30.00634766 C11.64023447 32.16180011 11.59928798 34.31712976 11.54736328 36.47216797 C11.4745837 39.57029493 11.44055168 42.66679932 11.4140625 45.765625 C11.38309479 46.72929993 11.35212708 47.69297485 11.32022095 48.68585205 C11.31892315 51.26501756 11.36175208 53.50032276 12 56 C14.85594231 58.64434469 14.85594231 58.64434469 18 60 C18 60.33 18 60.66 18 61 C13.05 61 8.1 61 3 61 C3 60.34 3 59.68 3 59 C3.9590625 58.8453125 3.9590625 58.8453125 4.9375 58.6875 C5.9584375 58.3471875 5.9584375 58.3471875 7 58 C7.94963047 55.1511086 8.14704922 53.29328703 8.19287109 50.33251953 C8.20893402 49.38788849 8.22499695 48.44325745 8.24154663 47.47000122 C8.28606733 43.1601847 8.3270429 38.85051995 8.35009766 34.54052734 C8.36667387 32.26698584 8.3939855 29.99349679 8.43212891 27.72021484 C8.4868571 24.440806 8.50876396 21.1626163 8.5234375 17.8828125 C8.54610687 16.86808868 8.56877625 15.85336487 8.59213257 14.80789185 C8.59027439 8.93268148 8.59027439 8.93268148 5.65478516 3.94482422 C3.80078018 2.58663003 1.91227278 1.27484852 0 0 Z " fill="#E5E3D2" transform="translate(169,53)"/>
<path d="M0 0 C7.93465125 4.52798402 13.49450823 10.93657238 16.1875 19.75 C17.27318954 29.30406796 16.45896511 37.60665447 10.95703125 45.796875 C6.43071462 51.30717351 0.68842815 56.20608293 -6.5 57.5 C-17.38064864 58.25742132 -25.25132113 57.52181847 -33.75 50.4375 C-41.05365574 43.32724324 -43.94621147 37.06153741 -44.125 26.9375 C-44.025621 20.06465788 -42.99993114 14.91362274 -38.5 9.5 C-37.99210937 8.86835937 -37.48421875 8.23671875 -36.9609375 7.5859375 C-27.25638086 -3.22245496 -13.31760584 -6.09138613 0 0 Z M-31.8125 7.125 C-37.22377121 15.11657764 -38.57896204 24.00513401 -37.5 33.5 C-35.72959618 41.34307929 -33.42597895 47.84857504 -26.82421875 52.7421875 C-20.41321822 56.59144248 -13.39150442 56.35539042 -6.19921875 55.09765625 C-0.40073166 53.37499892 3.32857536 49.54239737 6.5 44.5 C10.39104564 35.87622864 11.13919488 24.92712567 8.80859375 15.7890625 C6.24249774 9.49729571 2.23750565 3.40054713 -4.125 0.5625 C-14.4736776 -2.60950846 -24.75926798 -1.39406264 -31.8125 7.125 Z " fill="#EBE9D8" transform="translate(361.5,56.5)"/>
<path d="M0 0 C1.485 0.99 1.485 0.99 3 2 C5.17189933 2.30234984 5.17189933 2.30234984 7.59155273 2.25878906 C8.51939072 2.26509338 9.4472287 2.27139771 10.40318298 2.27789307 C11.90323631 2.27182037 11.90323631 2.27182037 13.43359375 2.265625 C14.97781761 2.26849518 14.97781761 2.26849518 16.55323792 2.27142334 C18.73121383 2.27278479 20.90919787 2.26909117 23.0871582 2.26074219 C26.4209214 2.25005316 29.75414436 2.26063339 33.08789062 2.2734375 C35.20312619 2.27211568 37.31836142 2.26955284 39.43359375 2.265625 C40.43160507 2.26967346 41.42961639 2.27372192 42.45787048 2.27789307 C43.38886063 2.27158875 44.31985077 2.26528442 45.27905273 2.25878906 C46.50458107 2.25640228 46.50458107 2.25640228 47.75486755 2.25396729 C50.40381344 2.08462988 50.40381344 2.08462988 54 0 C54 4.95 54 9.9 54 15 C53.67 15 53.34 15 53 15 C52.7525 13.88625 52.505 12.7725 52.25 11.625 C51.39973023 8.08632537 51.39973023 8.08632537 49.46875 6.8125 C45.77301265 5.59618138 42.11859751 5.52897403 38.25 5.375 C37.06083984 5.31699219 37.06083984 5.31699219 35.84765625 5.2578125 C33.89880584 5.163892 31.94943549 5.08087178 30 5 C30.09218269 12.63572296 30.19947698 20.27112532 30.31738281 27.90649414 C30.35571432 30.50507767 30.39055974 33.10371502 30.421875 35.70239258 C30.46743466 39.43330143 30.52544462 43.1638384 30.5859375 46.89453125 C30.59748871 48.06023148 30.60903992 49.2259317 30.62094116 50.42695618 C30.64081085 51.50785019 30.66068054 52.5887442 30.68115234 53.70239258 C30.69447601 54.65503494 30.70779968 55.60767731 30.7215271 56.58918762 C30.84459272 59.26041348 30.84459272 59.26041348 33 62 C34.32 62.66 35.64 63.32 37 64 C30.73 64 24.46 64 18 64 C19.65 62.68 21.3 61.36 23 60 C23.7542739 57.39766074 23.7542739 57.39766074 23.65942383 54.49707031 C23.67906693 53.39623108 23.69871002 52.29539185 23.71894836 51.16119385 C23.71304939 49.38757477 23.71304939 49.38757477 23.70703125 47.578125 C23.72215256 46.36300232 23.73727386 45.14787964 23.75285339 43.89593506 C23.79585097 40.0137697 23.80458069 36.13238011 23.8125 32.25 C23.8356347 29.61846878 23.86099786 26.98695614 23.88867188 24.35546875 C23.95164377 17.90363858 23.98648207 11.45211304 24 5 C21.26762206 5.03313799 18.54325157 5.10041961 15.8125 5.1875 C15.04357422 5.19330078 14.27464844 5.19910156 13.48242188 5.20507812 C9.28639014 5.3671566 7.47444947 5.62690155 4.07421875 8.30078125 C1.7995674 11.08355039 1.7995674 11.08355039 0 15 C0 10.05 0 5.1 0 0 Z " fill="#F6F2E0" transform="translate(427,52)"/>
<path d="M0 0 C6.04167529 3.61784113 10.62468786 9.40660687 13 16 C14.10334206 25.80314536 14.06618612 35.9684576 8.1875 44.25 C4.11200044 49.2949145 -0.28110471 53.42445334 -6.96166992 54.23925781 C-23.68002644 55.24897848 -23.68002644 55.24897848 -29.46875 50.5390625 C-30.22671875 49.77722656 -30.22671875 49.77722656 -31 49 C-31.81984375 48.23816406 -31.81984375 48.23816406 -32.65625 47.4609375 C-38.40352119 41.51645603 -41.16551481 34.3329371 -41.5625 26.125 C-41.22542075 17.67627167 -38.49879441 9.86136915 -32.25 4 C-22.03188655 -3.84091633 -11.8747105 -5.18778881 0 0 Z M-33 9 C-35.66327629 13.86736702 -36.68337918 18.51500985 -37 24 C-37.06445312 24.95519531 -37.12890625 25.91039063 -37.1953125 26.89453125 C-37.48565716 34.58866478 -36.65435164 39.94764967 -31.421875 45.75 C-26.64294279 50.2275581 -21.62063306 52.17152925 -14.9921875 52.08203125 C-13.61902009 52.00487232 -12.24651538 51.91490994 -10.875 51.8125 C-10.18535156 51.78091797 -9.49570313 51.74933594 -8.78515625 51.71679688 C-2.79912185 51.32192462 0.40136251 49.5605747 4.625 45.4375 C10.06911276 38.39621851 10.83222452 29.34119584 10.68359375 20.703125 C9.50145183 14.29929335 5.67343717 10.31679968 1 6 C0.21496094 5.24847656 -0.57007813 4.49695312 -1.37890625 3.72265625 C-10.14016058 -2.03548557 -26.09229783 1.59889053 -33 9 Z " fill="#C89140" transform="translate(155,57)"/>
<path d="M0 0 C3.07456309 1.25492371 4.41032219 2.01370615 6.09765625 4.8359375 C7.6377896 8.52959063 7.54538955 12.07319522 7 16 C5.21363013 19.71015281 3.67667982 21.5278978 0.3125 23.875 C-3.90544965 25.3075112 -7.59148627 25.75574521 -12 25 C-15.42010852 22.63223256 -16.91431429 19.98084759 -18 16 C-18.46738173 11.09249183 -18.53211885 8.99084199 -16.1875 4.625 C-11.49567317 -1.0051922 -6.87127657 -0.65392822 0 0 Z " fill="#2E4128" transform="translate(147,71)"/>
<path d="M0 0 C4.62 0 9.24 0 14 0 C12.515 2.475 12.515 2.475 11 5 C10.50479234 7.69442447 10.50479234 7.69442447 10.48828125 10.51953125 C10.45516846 11.44096924 10.42205566 12.36240723 10.38793945 13.31176758 C10.35059692 15.04463013 10.35059692 15.04463013 10.3125 16.8125 C10.209375 20.504375 10.10625 24.19625 10 28 C21.55 28 33.1 28 45 28 C45 28.33 45 28.66 45 29 C33.78 29 22.56 29 11 29 C11.061875 33.5375 11.12375 38.075 11.1875 42.75 C11.19418701 44.17538086 11.20087402 45.60076172 11.20776367 47.06933594 C11.24994019 48.75978027 11.24994019 48.75978027 11.29296875 50.484375 C11.31653442 52.21252441 11.31653442 52.21252441 11.34057617 53.97558594 C11.82448264 57.72040384 11.82448264 57.72040384 17 61 C10.73 61 4.46 61 -2 61 C-0.35 59.68 1.3 58.36 3 57 C3.7366292 54.45871077 3.7366292 54.45871077 3.61523438 51.63647461 C3.6291925 50.0297715 3.6291925 50.0297715 3.64343262 48.39060974 C3.61883972 46.66391808 3.61883972 46.66391808 3.59375 44.90234375 C3.59379028 43.71653214 3.59383057 42.53072052 3.59387207 41.30897522 C3.58851201 38.80317889 3.57090892 36.29738326 3.54199219 33.79174805 C3.50012023 29.94853574 3.50092424 26.10707387 3.5078125 22.26367188 C3.49732109 19.83071694 3.48438327 17.39777107 3.46875 14.96484375 C3.46854858 13.81169174 3.46834717 12.65853973 3.46813965 11.47044373 C3.45222778 10.40246048 3.43631592 9.33447723 3.41992188 8.23413086 C3.41150269 7.29355331 3.4030835 6.35297577 3.39440918 5.38389587 C3.16934409 2.58714071 3.16934409 2.58714071 0 0 Z " fill="#EAE8D8" transform="translate(52,53)"/>
<path d="M0 0 C6.27 0 12.54 0 19 0 C17.35 1.32 15.7 2.64 14 4 C12.74161443 6.51677113 12.79181027 8.41293288 12.68359375 11.2265625 C12.64548584 12.15549316 12.60737793 13.08442383 12.56811523 14.04150391 C12.52501221 15.22405762 12.48190918 16.40661133 12.4375 17.625 C12.293125 21.37875 12.14875 25.1325 12 29 C23.55 29 35.1 29 47 29 C47 29.33 47 29.66 47 30 C35.45 30 23.9 30 12 30 C12.103125 34.2075 12.20625 38.415 12.3125 42.75 C12.33739502 44.0709668 12.36229004 45.39193359 12.38793945 46.75292969 C12.42105225 47.79868164 12.45416504 48.84443359 12.48828125 49.921875 C12.51446533 50.99018555 12.54064941 52.05849609 12.56762695 53.15917969 C13.05273886 56.34651007 13.80126016 57.68226038 16 60 C16.99 60.66 17.98 61.32 19 62 C12.73 62 6.46 62 0 62 C1.65 60.68 3.3 59.36 5 58 C5.74956856 55.46702441 5.74956856 55.46702441 5.64697266 52.65234375 C5.67061386 51.05048218 5.67061386 51.05048218 5.69473267 49.41625977 C5.67955093 47.69427368 5.67955093 47.69427368 5.6640625 45.9375 C5.66884613 44.75406006 5.67362976 43.57062012 5.67855835 42.35131836 C5.68196012 39.84975861 5.67273858 37.34815458 5.65185547 34.84667969 C5.62509751 31.01396719 5.65159781 27.18418371 5.68359375 23.3515625 C5.68028971 20.92186852 5.67388359 18.49217637 5.6640625 16.0625 C5.67418365 14.91450928 5.68430481 13.76651855 5.69473267 12.58374023 C5.67897186 11.51583252 5.66321106 10.4479248 5.64697266 9.34765625 C5.64299469 8.40929932 5.63901672 7.47094238 5.63491821 6.50415039 C5.07393217 3.23451667 5.07393217 3.23451667 0 0 Z " fill="#EBE7D7" transform="translate(487,53)"/>
<path d="M0 0 C10.33333333 0 10.33333333 0 15 4 C18.72173937 8.23508273 19.41031648 12.2147404 19.34765625 17.7109375 C18.74154333 21.70174842 16.96284715 23.30051704 14 26 C9.22540996 28.91780503 6.16793979 28 0 28 C0 18.76 0 9.52 0 0 Z " fill="#244030" transform="translate(393,55)"/>
<path d="M0 0 C1.29808594 -0.02835938 2.59617188 -0.05671875 3.93359375 -0.0859375 C8.15652123 0.45045157 9.66060556 1.30816662 12.5625 4.375 C14.109375 7.06640625 14.109375 7.06640625 15.3125 9.9375 C15.71984375 10.88753906 16.1271875 11.83757812 16.546875 12.81640625 C18.51215525 17.76740073 19.65842848 22.0740106 17.9140625 27.328125 C14.95453218 33.75308826 10.31958088 40.66950213 3.5625 43.375 C-2.17655026 43.93765199 -7.34955531 43.08077977 -12.4375 40.375 C-17.33843306 36.08904889 -21.78325927 30.66064434 -22.78515625 24.09765625 C-23.18655003 17.41805207 -21.45786534 12.68650095 -17.4375 7.375 C-12.13969752 1.81975955 -7.61033309 0.07542451 0 0 Z M-16.140625 9.55859375 C-19.96535948 14.91552608 -20.45018858 19.90601522 -19.4375 26.375 C-17.17131343 31.29733382 -14.13435879 35.5619081 -9.4375 38.375 C-4.48016346 39.51551141 0.88850771 40.26476976 5.79296875 38.6328125 C10.64211896 35.52850001 13.47674502 30.63512769 15.5625 25.375 C16.99741964 18.46129627 13.26873857 12.0750502 9.5625 6.375 C5.17254012 2.46322032 2.61601955 1.04947885 -3.3515625 1.16796875 C-9.26531437 1.75491416 -12.54418015 5.23705921 -16.140625 9.55859375 Z " fill="#CD9441" transform="translate(143.4375,62.625)"/>
<path d="M0 0 C0 0.66 0 1.32 0 2 C-0.7425 2.70125 -1.485 3.4025 -2.25 4.125 C-9.0239613 11.20686864 -10.35982354 19.18170886 -10.2890625 28.72265625 C-9.65498098 35.91176967 -7.36877358 42.29180301 -3 48 C-3 48.66 -3 49.32 -3 50 C-6.64919217 49.43858582 -8.17501661 48.14170335 -10.5625 45.375 C-11.14128906 44.72273438 -11.72007812 44.07046875 -12.31640625 43.3984375 C-16.33009408 37.68056203 -17.56051695 32.43813573 -17.5 25.625 C-17.49427979 24.87621582 -17.48855957 24.12743164 -17.48266602 23.35595703 C-17.18206502 14.0423868 -13.13978679 8.62391994 -6.55078125 2.3125 C-4.16968333 0.29726347 -3.19643084 0 0 0 Z " fill="#F0ECDB" transform="translate(335,58)"/>
<path d="M0 0 C3.38031589 1.18767855 3.93216817 1.89825225 6 5 C6.46797583 9.21178243 6.46565795 11.28599114 4.125 14.875 C1.5616295 17.4383705 0.73970243 17.95175854 -2.875 18.1875 C-5.91488536 18.00510688 -7.49678709 17.6688086 -10 16 C-11.85152133 12.29695733 -11.45639068 8.04231745 -11 4 C-8.23047208 -0.6528069 -5.12712261 -0.54933457 0 0 Z " fill="#2F4225" transform="translate(144,74)"/>
<path d="M0 0 C1.32 0.33 2.64 0.66 4 1 C3.690625 1.66 3.38125 2.32 3.0625 3 C0.23895768 10.97235479 -0.93251853 22.4817195 2.5 30.375 C5.34164783 35.21894772 9.88233448 39.10320958 15.30859375 40.6640625 C19.81020416 41.22594711 24.29405791 40.95945936 28.8203125 40.83984375 C32 41 32 41 35 43 C28.14843802 45.28385399 18.19361677 45.32649154 11.24609375 43.12890625 C9.21550379 41.91691028 7.66578879 40.67428771 6 39 C5.18015625 38.23816406 5.18015625 38.23816406 4.34375 37.4609375 C-1.4541314 31.46410919 -4.18110737 24.28057853 -4.5 16 C-4.31601544 10.08183006 -2.61050572 5.26762762 0 0 Z " fill="#C38738" transform="translate(118,67)"/>
<path d="M0 0 C3.84682705 2.33826742 5.80962331 4.71418565 7.1875 8.9375 C7.9794579 13.55861516 7.6915885 17.57196776 5.625 21.8125 C2.84882988 25.37169246 0.53566287 27.02339758 -3.8125 27.9375 C-8.40529617 28.44701333 -12.37999039 28.45564177 -16.75 26.875 C-20.54447304 23.31049502 -21.95906503 19.05245698 -22.1875 13.9375 C-21.92932289 8.38669206 -20.29903832 4.31785701 -16.1875 0.5 C-10.50879087 -2.12903201 -5.94076986 -1.65562439 0 0 Z M-17.8125 5.9375 C-20.06904903 8.94623204 -20.22436276 12.05017889 -20.140625 15.76953125 C-19.57218643 19.52528611 -17.94631413 22.81465523 -15.8125 25.9375 C-12.30165948 27.69292026 -8.64361562 27.48567235 -4.8125 26.9375 C-1.06449614 25.34666644 2.17660775 23.52932709 4.390625 20.04296875 C6.15358988 15.38493899 5.86624836 10.53255865 3.9375 6 C1.45886883 3.07875613 -0.63044645 2.08900016 -4.43359375 1.6015625 C-11.98704859 1.44051455 -11.98704859 1.44051455 -17.8125 5.9375 Z " fill="#C59C50" transform="translate(148.8125,69.0625)"/>
<path d="M0 0 C0.60218978 7.10583942 0.60218978 7.10583942 -2.0625 11.0625 C-5 13 -5 13 -8.6875 12.9375 C-12 12 -12 12 -14 10 C-14.41925264 6.22672622 -14.47188421 3.8579713 -12.625 0.5 C-8.48972013 -1.86301707 -4.55554956 -0.79982931 0 0 Z " fill="#686539" transform="translate(266,144)"/>
<path d="M0 0 C3.375 0.875 3.375 0.875 5.375 2.875 C6.05181895 9.98159898 6.05181895 9.98159898 3.8125 12.9375 C0.3538559 14.26774773 -2.0690159 13.73107025 -5.625 12.875 C-7.625 10.875 -7.625 10.875 -8 7.5 C-7.625 3.875 -7.625 3.875 -6.0625 1.375 C-3.625 -0.125 -3.625 -0.125 0 0 Z " fill="#575D37" transform="translate(403.625,143.125)"/>
<path d="M0 0 C0.33 0 0.66 0 1 0 C1.10957031 0.80824219 1.21914062 1.61648437 1.33203125 2.44921875 C1.49058594 3.51785156 1.64914063 4.58648437 1.8125 5.6875 C1.96332031 6.74324219 2.11414063 7.79898438 2.26953125 8.88671875 C3.03602665 12.15354675 4.00142062 14.31425773 6 17 C12.37171484 19.12390495 19.4739925 18.13495783 26 17 C24.75023244 20.65316671 24.32901247 21.78065836 21 24 C15.46317032 24.28829954 8.9862341 24.42723307 4.4375 20.875 C-0.90693477 14.57130771 -2.68296674 10.36634253 -2 2 C-1.34 2 -0.68 2 0 2 C0 1.34 0 0.68 0 0 Z " fill="#2E4026" transform="translate(126,78)"/>
<path d="M0 0 C0.99 0.33 1.98 0.66 3 1 C2.6803125 1.55300781 2.360625 2.10601562 2.03125 2.67578125 C0.11319233 6.99867638 0.27219254 11.38433219 1 16 C3.18743401 20.67848663 5.69661073 24.13107382 10 27 C12.38082853 27.60421492 14.77975094 28.1390323 17.1875 28.625 C18.45980469 28.88539062 19.73210937 29.14578125 21.04296875 29.4140625 C22.01878906 29.60742188 22.99460938 29.80078125 24 30 C23.67 30.99 23.34 31.98 23 33 C16.39674163 33.42148458 10.1284724 32.73590347 4.9765625 28.23046875 C-0.61434479 22.06159847 -3.53391674 16.84460457 -3.3046875 8.4140625 C-2.89635394 5.1788043 -1.73042834 2.73984487 0 0 Z " fill="#C18535" transform="translate(124,73)"/>
<path d="M0 0 C1.44375 0.12375 2.8875 0.2475 4.375 0.375 C5.59316406 0.47941406 5.59316406 0.47941406 6.8359375 0.5859375 C9 1 9 1 11 3 C11.56975037 8.1277533 11.56975037 8.1277533 11 11 C7.27516016 14.50573162 5.35854315 14 0 14 C0 9.38 0 4.76 0 0 Z " fill="#6C693B" transform="translate(523,143)"/>
<path d="M0 0 C4.29 0 8.58 0 13 0 C12.0925 0.9075 11.185 1.815 10.25 2.75 C7.66171919 5.78318854 6.32876755 8.41678807 5.15625 12.21875 C3.56527611 17.22658056 1.91889082 22.20584764 0.203125 27.171875 C-0.28522944 28.59112065 -0.77351018 30.01039167 -1.26171875 31.4296875 C-1.7577998 32.86979604 -2.2538937 34.30990016 -2.75 35.75 C-3.2617716 37.23696098 -3.77349068 38.72394004 -4.28515625 40.2109375 C-5.52283382 43.80749977 -6.7612159 47.40381871 -8 51 C-8.99 50.34 -9.98 49.68 -11 49 C-10.7721582 48.45432373 -10.54431641 47.90864746 -10.30957031 47.34643555 C-7.40891686 40.26148125 -4.86558325 33.06705309 -2.42578125 25.81274414 C-1.97289512 24.472247 -1.51515715 23.13337988 -1.05273438 21.79614258 C-0.37365944 19.83232482 0.29121233 17.86419048 0.953125 15.89453125 C1.34661133 14.73800049 1.74009766 13.58146973 2.14550781 12.38989258 C3.06615417 8.73755694 3.37026564 5.74936948 3 2 C2.01 1.34 1.02 0.68 0 0 Z " fill="#C9CFBF" transform="translate(310,53)"/>
<path d="M0 0 C0 0.66 0 1.32 0 2 C0.99 2 1.98 2 3 2 C3 2.66 3 3.32 3 4 C2.04746338 4.05945801 2.04746338 4.05945801 1.07568359 4.12011719 C-1.82609362 4.31169905 -4.72519919 4.53059515 -7.625 4.75 C-9.12353516 4.8428125 -9.12353516 4.8428125 -10.65234375 4.9375 C-17.93141155 5.51596896 -21.78351095 6.78351095 -27 12 C-27.99 12 -28.98 12 -30 12 C-27.45788835 6.02539242 -22.08402286 3.13673974 -16.5625 0.125 C-10.92900688 -1.65399783 -5.67797431 -1.58932012 0 0 Z " fill="#DB983E" transform="translate(149,55)"/>
<path d="M0 0 C1.32 0.66 2.64 1.32 4 2 C4 2.99 4 3.98 4 5 C5.32 4.01 6.64 3.02 8 2 C8.33 2.99 8.66 3.98 9 5 C9.66 3.68 10.32 2.36 11 1 C12.25955231 4.77865693 11.48087189 6.03411786 10.0625 9.6875 C9.68222656 10.68136719 9.30195312 11.67523438 8.91015625 12.69921875 C8.60980469 13.45847656 8.30945313 14.21773437 8 15 C6.02 14.34 4.04 13.68 2 13 C2.66 12.34 3.32 11.68 4 11 C3.67958603 8.39719432 3.67958603 8.39719432 3 6 C1.22293791 8.66559313 0.12451727 11.0280615 -1 14 C-1.66 14 -2.32 14 -3 14 C-3.69670416 12.21189234 -4.38211189 10.41937948 -5.0625 8.625 C-5.44535156 7.62726563 -5.82820313 6.62953125 -6.22265625 5.6015625 C-7 3 -7 3 -6 1 C-5.34 2.32 -4.68 3.64 -4 5 C-2.68 3.35 -1.36 1.7 0 0 Z " fill="#6E6133" transform="translate(59,142)"/>
<path d="M0 0 C3.38031589 1.18767855 3.93216817 1.89825225 6 5 C6.46797583 9.21178243 6.46565795 11.28599114 4.125 14.875 C1.5616295 17.4383705 0.73970243 17.95175854 -2.875 18.1875 C-5.91488536 18.00510688 -7.49678709 17.6688086 -10 16 C-11.85152133 12.29695733 -11.45639068 8.04231745 -11 4 C-8.23047208 -0.6528069 -5.12712261 -0.54933457 0 0 Z M-9 4 C-9.23820921 6.03270562 -9.23820921 6.03270562 -9.25 8.375 C-9.27578125 9.16648437 -9.3015625 9.95796875 -9.328125 10.7734375 C-9.16529556 13.06053933 -9.16529556 13.06053933 -7.70703125 14.796875 C-5.86223521 16.35447266 -5.86223521 16.35447266 -2.4375 15.875 C1.25442394 15.34366067 1.25442394 15.34366067 3 12 C2.76787034 6.95998592 2.76787034 6.95998592 0 3 C-4.86598868 2.29484356 -4.86598868 2.29484356 -9 4 Z " fill="#D1A43F" transform="translate(144,74)"/>
<path d="M0 0 C3.375 1 3.375 1 4.8125 3.0625 C5.0909375 4.0215625 5.0909375 4.0215625 5.375 5 C2.9 4.01 2.9 4.01 0.375 3 C-0.285 5.97 -0.945 8.94 -1.625 12 C1.92018884 10.60240095 1.92018884 10.60240095 5.375 9 C4.75 10.9375 4.75 10.9375 3.375 13 C0.5625 14.0625 0.5625 14.0625 -2.625 14 C-5.71363075 11.71709901 -7.35391863 10.23492622 -8.1875 6.4375 C-7.05357626 1.52383046 -4.99426209 0 0 0 Z " fill="#6E683A" transform="translate(300.625,143)"/>
<path d="M0 0 C12.00221969 -1.06199416 12.00221969 -1.06199416 16.53515625 1.34765625 C18.55577451 3.11910386 20.28271105 4.93511521 22 7 C22.52464844 7.57105469 23.04929688 8.14210938 23.58984375 8.73046875 C27 12.55626731 27 12.55626731 27 15 C26.34 15 25.68 15 25 15 C25 16.32 25 17.64 25 19 C24.34 19 23.68 19 23 19 C22.60167969 18.15695313 22.20335937 17.31390625 21.79296875 16.4453125 C21.26316406 15.34960938 20.73335937 14.25390625 20.1875 13.125 C19.66542969 12.03445312 19.14335937 10.94390625 18.60546875 9.8203125 C17.15275103 6.77778598 17.15275103 6.77778598 14 5 C11.26127045 4.54227937 11.26127045 4.54227937 8.3125 4.375 C6.82169922 4.26285156 6.82169922 4.26285156 5.30078125 4.1484375 C4.54152344 4.09945312 3.78226563 4.05046875 3 4 C3 3.67 3 3.34 3 3 C7.455 2.505 7.455 2.505 12 2 C8.04 1.67 4.08 1.34 0 1 C0 0.67 0 0.34 0 0 Z " fill="#304128" transform="translate(137,59)"/>
<path d="M0 0 C2.37935174 1.69509373 3.80393453 3.27019962 5.390625 5.703125 C4.730625 5.703125 4.070625 5.703125 3.390625 5.703125 C3.060625 6.693125 2.730625 7.683125 2.390625 8.703125 C2.0503125 8.23261719 1.71 7.76210937 1.359375 7.27734375 C-2.36427922 2.49403261 -5.57798046 -0.19111933 -11.609375 -1.296875 C-17.88633607 -1.80894288 -23.75487069 -1.89887692 -29.609375 0.703125 C-30.269375 0.043125 -30.929375 -0.616875 -31.609375 -1.296875 C-21.50378532 -7.21234213 -9.88312421 -5.34660818 0 0 Z " fill="#E5E6D4" transform="translate(364.609375,58.296875)"/>
<path d="M0 0 C0.99 0.33 1.98 0.66 3 1 C3 1.66 3 2.32 3 3 C4.32 2.67 5.64 2.34 7 2 C7 2.66 7 3.32 7 4 C7.66 4 8.32 4 9 4 C9 2.68 9 1.36 9 0 C9.66 0 10.32 0 11 0 C11 4.62 11 9.24 11 14 C8.06799526 11.14723863 5.35684596 8.34920216 3 5 C2.67 7.97 2.34 10.94 2 14 C1.34 14 0.68 14 0 14 C0 9.38 0 4.76 0 0 Z " fill="#716C3A" transform="translate(419,143)"/>
<path d="M0 0 C2.31 0 4.62 0 7 0 C9 2 9 2 9.1875 4.4375 C9 7 9 7 8 10 C8.38932856 12.14255793 8.38932856 12.14255793 9 14 C8.4225 13.360625 7.845 12.72125 7.25 12.0625 C5.01937599 10.01776132 3.92563609 9.41794801 1 9 C1 10.65 1 12.3 1 14 C0.67 14 0.34 14 0 14 C0 9.38 0 4.76 0 0 Z " fill="#9C8746" transform="translate(485,143)"/>
<path d="M0 0 C3.3 0 6.6 0 10 0 C9.2733313 0.91108521 9.2733313 0.91108521 8.53198242 1.84057617 C6.32698194 6.38797239 6.52083094 10.55677591 6.48828125 15.55078125 C6.47033005 16.56472458 6.45237885 17.57866791 6.43388367 18.62333679 C6.37982154 21.85301592 6.34589756 25.08254757 6.3125 28.3125 C6.27932337 30.50587987 6.24483339 32.6992403 6.20898438 34.89257812 C6.12409754 40.26158651 6.05573029 45.63061407 6 51 C5.67 51 5.34 51 5 51 C4.99453156 50.15221733 4.99453156 50.15221733 4.98895264 49.28730774 C4.94710252 43.39823467 4.87773972 37.50993914 4.79248047 31.62133789 C4.7642761 29.42447694 4.74305893 27.22751461 4.72900391 25.03051758 C4.70756751 21.8700777 4.6609122 18.71085604 4.609375 15.55078125 C4.60814636 14.57039383 4.60691772 13.59000641 4.60565186 12.57991028 C4.50984647 8.10717386 4.43546881 5.67506011 1.96191406 1.84057617 C1.31448242 1.23318604 0.66705078 0.6257959 0 0 Z " fill="#FBF3E6" transform="translate(221,53)"/>
<path d="M0 0 C3 1 3 1 4.203125 3.21484375 C4.54859375 4.11332031 4.8940625 5.01179687 5.25 5.9375 C5.60578125 6.83339844 5.9615625 7.72929687 6.328125 8.65234375 C7 11 7 11 6 13 C5.67 12.01 5.34 11.02 5 10 C2.36 10 -0.28 10 -3 10 C-3 10.99 -3 11.98 -3 13 C-3.66 13 -4.32 13 -5 13 C-4.54554036 11.58208592 -4.08625056 10.16571954 -3.625 8.75 C-3.24214844 7.56664062 -3.24214844 7.56664062 -2.8515625 6.359375 C-2.04826333 4.13372042 -1.10288338 2.09068328 0 0 Z " fill="#937F45" transform="translate(278,144)"/>
<path d="M0 0 C2.97 0 5.94 0 9 0 C9 0.66 9 1.32 9 2 C6.69 2 4.38 2 2 2 C2 3.32 2 4.64 2 6 C3.98 6 5.96 6 8 6 C8 6.66 8 7.32 8 8 C6.02 8 4.04 8 2 8 C2 9.32 2 10.64 2 12 C4.31 12 6.62 12 9 12 C9 12.66 9 13.32 9 14 C6.03 14 3.06 14 0 14 C0 9.38 0 4.76 0 0 Z " fill="#87723E" transform="translate(80,143)"/>
<path d="M0 0 C2.79081339 1.3954067 3.03903006 3.01419041 4.1875 5.875 C4.55230469 6.75929687 4.91710937 7.64359375 5.29296875 8.5546875 C6 11 6 11 5 14 C4.67 13.34 4.34 12.68 4 12 C0.58343976 11.83322718 0.58343976 11.83322718 -3 12 C-3.66 12.66 -4.32 13.32 -5 14 C-4.34580901 8.93001981 -2.1453591 4.58009223 0 0 Z " fill="#876F39" transform="translate(103,143)"/>
<path d="M0 0 C1.38133337 2.22904804 2.10690046 3.40740119 1.63208008 6.03955078 C1.34743896 6.75095215 1.06279785 7.46235352 0.76953125 8.1953125 C0.46217041 8.9896167 0.15480957 9.7839209 -0.16186523 10.60229492 C-0.66955444 11.85103394 -0.66955444 11.85103394 -1.1875 13.125 C-1.85114963 14.83118052 -2.51263017 16.53820644 -3.171875 18.24609375 C-3.49091797 19.0644873 -3.80996094 19.88288086 -4.13867188 20.72607422 C-5.66464621 24.75468107 -6.84430222 28.85308445 -8 33 C-8.66 32.67 -9.32 32.34 -10 32 C-7.32756186 21.1320849 -3.59356149 10.58898853 0 0 Z " fill="#D3D8C8" transform="translate(277,70)"/>
<path d="M0 0 C2.64 0 5.28 0 8 0 C8 0.66 8 1.32 8 2 C6.02 2 4.04 2 2 2 C2 3.32 2 4.64 2 6 C3.65 6 5.3 6 7 6 C7 6.66 7 7.32 7 8 C5.35 8 3.7 8 2 8 C2 9.32 2 10.64 2 12 C3.98 12 5.96 12 8 12 C8 12.66 8 13.32 8 14 C5.36 14 2.72 14 0 14 C0 9.38 0 4.76 0 0 Z " fill="#978549" transform="translate(234,143)"/>
<path d="M0 0 C2.125 0.375 2.125 0.375 4 1 C1.25 5.875 1.25 5.875 -1 7 C-5.55547083 7.25785684 -8.8780636 6.99851462 -13 5 C-10.2173829 2.2173829 -7.89667775 2.59069336 -4.09375 2.34375 C-1.78487741 2.17368193 -1.78487741 2.17368193 0 0 Z " fill="#213D2A" transform="translate(148,95)"/>
<path d="M0 0 C1.23258359 0.59825399 2.43641099 1.2560117 3.625 1.9375 C8.94226441 4.4873502 13.83060779 4.28902402 19.59033203 4.02709961 C21.39211665 3.95453435 23.19699085 3.97081835 25 4 C25.66 4.66 26.32 5.32 27 6 C18.7919285 8.46440888 8.64347734 8.02027055 1 4 C-0.7421875 2.39453125 -0.7421875 2.39453125 -2 1 C-1.34 0.67 -0.68 0.34 0 0 Z " fill="#DCDFCE" transform="translate(332,107)"/>
<path d="M0 0 C0.33 0 0.66 0 1 0 C1.33 3.96 1.66 7.92 2 12 C2.99 12 3.98 12 5 12 C5.33 11.01 5.66 10.02 6 9 C6.66 9 7.32 9 8 9 C8 6.03 8 3.06 8 0 C8.66 0 9.32 0 10 0 C10.08114106 1.77007714 10.13925505 3.54122098 10.1875 5.3125 C10.22230469 6.29863281 10.25710938 7.28476563 10.29296875 8.30078125 C10 11 10 11 8.6484375 12.83203125 C6.31400155 14.48605104 4.78938267 14.42913579 2 14 C-0.28062828 10.57905758 -0.21925007 9.31812778 -0.125 5.3125 C-0.10695313 4.31863281 -0.08890625 3.32476562 -0.0703125 2.30078125 C-0.04710937 1.54152344 -0.02390625 0.78226563 0 0 Z " fill="#8A7940" transform="translate(464,143)"/>
<path d="M0 0 C0.33 0.99 0.66 1.98 1 3 C-0.01320312 3.36351562 -0.01320312 3.36351562 -1.046875 3.734375 C-5.94980625 5.5765168 -9.45234828 7.02663007 -13 11 C-13.99 11 -14.98 11 -16 11 C-14.58590577 7.60470083 -12.97643772 5.94087183 -10 3.8125 C-8.948125 3.04873047 -8.948125 3.04873047 -7.875 2.26953125 C-4.77518936 0.17070113 -4.0021248 0 0 0 Z " fill="#D6A841" transform="translate(135,56)"/>
<path d="M0 0 C0.66 0.33 1.32 0.66 2 1 C1.67 1.33 1.34 1.66 1 2 C0.80058132 4.06772734 0.80058132 4.06772734 0.8125 6.4375 C0.79832031 7.24058594 0.78414062 8.04367188 0.76953125 8.87109375 C0.79837644 11.21630633 0.79837644 11.21630633 3 13 C5.44963177 13.02253443 5.44963177 13.02253443 8.125 12.625 C9.03507813 12.51414062 9.94515625 12.40328125 10.8828125 12.2890625 C11.58148438 12.19367188 12.28015625 12.09828125 13 12 C10.72097997 14.80494773 9.65494791 15.91813151 6 16.375 C3.13302181 16.01662773 1.38700954 15.5913397 -1 14 C-2.23887548 11.52224905 -2.16741669 9.76346293 -2.1875 7 C-2.20167969 6.113125 -2.21585938 5.22625 -2.23046875 4.3125 C-2 2 -2 2 0 0 Z " fill="#C19C58" transform="translate(135,76)"/>
<path d="M0 0 C0.66 0 1.32 0 2 0 C2 1.98 2 3.96 2 6 C4.31 6 6.62 6 9 6 C9 4.35 9 2.7 9 1 C9.33 1 9.66 1 10 1 C10 4.96 10 8.92 10 13 C9.67 13 9.34 13 9 13 C9 11.35 9 9.7 9 8 C6.69 8 4.38 8 2 8 C2 9.98 2 11.96 2 14 C1.34 14 0.68 14 0 14 C0 9.38 0 4.76 0 0 Z " fill="#998644" transform="translate(375,143)"/>
<path d="M0 0 C0.66 0.33 1.32 0.66 2 1 C0.51129888 6.29315952 -3.08601135 10.26907096 -7 14 C-7.99 14.33 -8.98 14.66 -10 15 C-10 14.34 -10 13.68 -10 13 C-10.99 12.67 -11.98 12.34 -13 12 C-12.48050781 11.72027344 -11.96101562 11.44054687 -11.42578125 11.15234375 C-6.13923589 8.11331306 -3.23886606 5.16194279 0 0 Z " fill="#D0A75B" transform="translate(158,90)"/>
<path d="M0 0 C1 1 1 1 1.125 3.5 C1 6 1 6 0 7 C-2.4375 7.25 -2.4375 7.25 -5 7 C-7 4 -7 4 -6.75 1.875 C-5.31392731 -1.71518171 -3.18557054 -1.0276034 0 0 Z " fill="#9A8643" transform="translate(144,80)"/>
<path d="M0 0 C0.391875 0.515625 0.78375 1.03125 1.1875 1.5625 C2.0846875 2.2740625 2.0846875 2.2740625 3 3 C5.65466049 2.76956136 5.65466049 2.76956136 8 2 C8.66 4.31 9.32 6.62 10 9 C9.01 9 8.02 9 7 9 C6.67 10.32 6.34 11.64 6 13 C5.01 13 4.02 13 3 13 C2.86722656 12.39671875 2.73445313 11.7934375 2.59765625 11.171875 C2.42105469 10.37265625 2.24445313 9.5734375 2.0625 8.75 C1.88847656 7.96109375 1.71445312 7.1721875 1.53515625 6.359375 C1.052444 4.23121297 0.53836822 2.11467158 0 0 Z " fill="#6D6937" transform="translate(315,144)"/>
<path d="M0 0 C1.32 0.33 2.64 0.66 4 1 C3.690625 1.66 3.38125 2.32 3.0625 3 C1.75039745 6.70476015 1.39735865 10.09263991 1 14 C0.67 14 0.34 14 0 14 C-0.33 12.02 -0.66 10.04 -1 8 C-2.00259507 11.00778521 -2.30314642 13.53820647 -2.5625 16.6875 C-2.64628906 17.68136719 -2.73007813 18.67523438 -2.81640625 19.69921875 C-2.87699219 20.45847656 -2.93757813 21.21773437 -3 22 C-3.33 22 -3.66 22 -4 22 C-4.51345509 13.69914269 -3.70721995 7.48064025 0 0 Z " fill="#A87931" transform="translate(118,67)"/>
<path d="M0 0 C5.75 4.75 5.75 4.75 8 7 C3.05 7 -1.9 7 -7 7 C-7 6.34 -7 5.68 -7 5 C-6.360625 4.896875 -5.72125 4.79375 -5.0625 4.6875 C-4.381875 4.460625 -3.70125 4.23375 -3 4 C-2.67 3.01 -2.34 2.02 -2 1 C-1.34 0.67 -0.68 0.34 0 0 Z " fill="#C1C7B7" transform="translate(179,107)"/>
<path d="M0 0 C1.65 0.99 3.3 1.98 5 3 C6.32608822 3.68096422 7.65686601 4.35330586 9 5 C7.576875 5.804375 7.576875 5.804375 6.125 6.625 C2.63260408 9.2792209 1.95264124 10.80837855 1 15 C0.67 15 0.34 15 0 15 C0 10.05 0 5.1 0 0 Z " fill="#E4E4D4" transform="translate(427,52)"/>
<path d="M0 0 C0.66 0 1.32 0 2 0 C1.21186671 5.77964413 -1.59102497 9.29264968 -6 13 C-8.54062424 13.92386336 -10.25480978 14 -13 14 C-11 12 -11 12 -8.625 10.6875 C-4.46396224 8.01254716 -1.99267862 4.4835269 0 0 Z " fill="#C7A14D" transform="translate(163,95)"/>
<path d="M0 0 C0 4.95 0 9.9 0 15 C-0.33 15 -0.66 15 -1 15 C-1.226875 13.906875 -1.45375 12.81375 -1.6875 11.6875 C-2.65747195 7.87511789 -2.65747195 7.87511789 -5.625 6.0625 C-6.40875 5.711875 -7.1925 5.36125 -8 5 C-1.40909091 0 -1.40909091 0 0 0 Z " fill="#EAEADA" transform="translate(481,52)"/>
<path d="M0 0 C0.33 0 0.66 0 1 0 C0.14285714 8.57142857 0.14285714 8.57142857 -2 12 C-2.66 12 -3.32 12 -4 12 C-4.99 8.37 -5.98 4.74 -7 1 C-6.01 1.495 -6.01 1.495 -5 2 C-4.67 2.99 -4.34 3.98 -4 5 C-3.360625 4.175 -2.72125 3.35 -2.0625 2.5 C-1.381875 1.675 -0.70125 0.85 0 0 Z " fill="#4D522E" transform="translate(59,142)"/>
<path d="M0 0 C3.3 0 6.6 0 10 0 C10 0.66 10 1.32 10 2 C8.68 2 7.36 2 6 2 C6 5.96 6 9.92 6 14 C5.34 14 4.68 14 4 14 C4 10.04 4 6.08 4 2 C2.68 2 1.36 2 0 2 C0 1.34 0 0.68 0 0 Z " fill="#8E7A3D" transform="translate(133,143)"/>
<path d="M0 0 C0.33 0 0.66 0 1 0 C1.10655578 6.44070471 0.96205088 12.62641289 0 19 C-0.66 19 -1.32 19 -2 19 C-2.05411124 16.58303128 -2.09372278 14.16728213 -2.125 11.75 C-2.14175781 11.06808594 -2.15851563 10.38617188 -2.17578125 9.68359375 C-2.21213482 5.9391765 -2.07944349 3.17647273 0 0 Z " fill="#D68A33" transform="translate(117,74)"/>
<path d="M0 0 C0.66 0 1.32 0 2 0 C2 3.96 2 7.92 2 12 C4.31 12 6.62 12 9 12 C9 12.66 9 13.32 9 14 C6.03 14 3.06 14 0 14 C0 9.38 0 4.76 0 0 Z " fill="#85723C" transform="translate(216,143)"/>
<path d="M0 0 C-3.24696304 2.16464203 -4.5254947 2.2904838 -8.3125 2.5 C-12.50398598 2.805745 -16.07154414 3.40738276 -20 5 C-20.66 4.34 -21.32 3.68 -22 3 C-15.08715353 -1.04654428 -7.74175497 -0.26901851 0 0 Z " fill="#CCCFC1" transform="translate(355,54)"/>
<path d="M0 0 C1.65 0 3.3 0 5 0 C4.835 0.53625 4.67 1.0725 4.5 1.625 C3.90339788 4.45886009 3.9343632 7.1119806 4 10 C2.68 10 1.36 10 0 10 C0 6.7 0 3.4 0 0 Z " fill="#33452A" transform="translate(524,145)"/>
<path d="M0 0 C2.96968426 4.45452639 3.37870034 7.69819529 3 13 C1.5 14.9375 1.5 14.9375 0 16 C-0.98275588 13.05173237 -1.13414725 11.07347496 -1.125 8 C-1.12757813 7.13375 -1.13015625 6.2675 -1.1328125 5.375 C-1 3 -1 3 0 0 Z " fill="#C2903F" transform="translate(159,75)"/>
<path d="M0 0 C1.48831242 0.00667405 2.97660807 0.01863442 4.46484375 0.03515625 C5.22345703 0.03966797 5.98207031 0.04417969 6.76367188 0.04882812 C8.64326246 0.06064945 10.52281274 0.07858547 12.40234375 0.09765625 C12.07234375 0.75765625 11.74234375 1.41765625 11.40234375 2.09765625 C8.86210371 2.57340063 6.40182911 2.93773172 3.83984375 3.22265625 C3.12892578 3.30902344 2.41800781 3.39539062 1.68554688 3.484375 C-0.07454937 3.69700408 -1.83599789 3.89838322 -3.59765625 4.09765625 C-3.92765625 3.10765625 -4.25765625 2.11765625 -4.59765625 1.09765625 C-3.59765625 0.09765625 -3.59765625 0.09765625 0 0 Z " fill="#1F3C28" transform="translate(137.59765625,59.90234375)"/>
<path d="M0 0 C2.625 0.375 2.625 0.375 5 1 C5.33 0.67 5.66 0.34 6 0 C6.99 0.33 7.98 0.66 9 1 C9 3.31 9 5.62 9 8 C8.67 7.34 8.34 6.68 8 6 C5.69 6 3.38 6 1 6 C2.32 5.67 3.64 5.34 5 5 C5 4.34 5 3.68 5 3 C2.36 3 -0.28 3 -3 3 C-1.8125 1.4375 -1.8125 1.4375 0 0 Z " fill="#364529" transform="translate(257,144)"/>
<path d="M0 0 C4.29 0 8.58 0 13 0 C7.25 6.875 7.25 6.875 5 8 C4.731875 7.05125 4.46375 6.1025 4.1875 5.125 C3.25013412 1.74732727 3.25013412 1.74732727 0 0 Z " fill="#E6E7D6" transform="translate(310,53)"/>
<path d="M0 0 C0.33 0 0.66 0 1 0 C1.36337162 3.27034459 1.28544288 4.60883753 -0.6875 7.3125 C-3 9 -3 9 -5.625 9.4375 C-6.40875 9.293125 -7.1925 9.14875 -8 9 C-8.66 8.01 -9.32 7.02 -10 6 C-9.34 5.01 -8.68 4.02 -8 3 C-7.67 3.66 -7.34 4.32 -7 5 C-5.35 5 -3.7 5 -2 5 C-1.34 3.35 -0.68 1.7 0 0 Z " fill="#434C27" transform="translate(146,81)"/>
<path d="M0 0 C0.99 0.33 1.98 0.66 3 1 C2.52433594 1.82757813 2.52433594 1.82757813 2.0390625 2.671875 C0.87290025 5.28477989 0.59954289 7.40579002 0.375 10.25 C0.30023438 11.14203125 0.22546875 12.0340625 0.1484375 12.953125 C0.09945312 13.62859375 0.05046875 14.3040625 0 15 C-0.99 15.33 -1.98 15.66 -3 16 C-3.32712342 9.86946489 -3.39366878 5.37330889 0 0 Z " fill="#BC873C" transform="translate(124,73)"/>
<path d="M0 0 C0.99 0.33 1.98 0.66 3 1 C4.1875 3.5625 4.1875 3.5625 5 6 C4.34 5.67 3.68 5.34 3 5 C2.67 7.97 2.34 10.94 2 14 C1.34 14 0.68 14 0 14 C0 9.38 0 4.76 0 0 Z " fill="#917A3D" transform="translate(419,143)"/>
<path d="M0 0 C2.27024968 -0.08097324 4.54132075 -0.13917704 6.8125 -0.1875 C8.07707031 -0.22230469 9.34164062 -0.25710937 10.64453125 -0.29296875 C14 0 14 0 15.94921875 1.51171875 C16.29597656 2.00285156 16.64273438 2.49398437 17 3 C16 4 16 4 13.05859375 4.09765625 C11.26615234 4.08025391 11.26615234 4.08025391 9.4375 4.0625 C7.64119141 4.04896484 7.64119141 4.04896484 5.80859375 4.03515625 C4.88175781 4.02355469 3.95492187 4.01195312 3 4 C3 3.67 3 3.34 3 3 C7.455 2.505 7.455 2.505 12 2 C8.04 1.67 4.08 1.34 0 1 C0 0.67 0 0.34 0 0 Z " fill="#53542E" transform="translate(137,59)"/>
<path d="M0 0 C1.98 0 3.96 0 6 0 C6.5625 1.9375 6.5625 1.9375 7 4 C6 5 6 5 2.9375 5.0625 C1.4834375 5.0315625 1.4834375 5.0315625 0 5 C0 3.35 0 1.7 0 0 Z " fill="#263C26" transform="translate(486,145)"/>
<path d="M0 0 C5.16462533 5.87698745 7.48233979 11.12178341 7 19 C6.67 19 6.34 19 6 19 C5.67 17.35 5.34 15.7 5 14 C4.67 14 4.34 14 4 14 C0.74031891 4.58997722 0.74031891 4.58997722 0 0 Z " fill="#424927" transform="translate(152,69)"/>
<path d="M0 0 C7.42857143 -0.28571429 7.42857143 -0.28571429 11 2 C10.01 2.495 10.01 2.495 9 3 C8.67 3.66 8.34 4.32 8 5 C7.67 4.67 7.34 4.34 7 4 C4.67182036 3.63239269 2.3381615 3.29758419 0 3 C0 2.01 0 1.02 0 0 Z " fill="#B9973B" transform="translate(137,74)"/>
<path d="M0 0 C0.94875 0.04125 1.8975 0.0825 2.875 0.125 C2.875 0.785 2.875 1.445 2.875 2.125 C2.070625 2.351875 1.26625 2.57875 0.4375 2.8125 C-0.408125 3.245625 -1.25375 3.67875 -2.125 4.125 C-3.01886164 6.67275306 -3.01886164 6.67275306 -3.125 9.125 C-4.115 8.795 -5.105 8.465 -6.125 8.125 C-5.09178322 0.20367133 -5.09178322 0.20367133 0 0 Z " fill="#233F2D" transform="translate(129.125,61.875)"/>
<path d="M0 0 C1.1171875 1.640625 1.1171875 1.640625 2 4 C1.3203125 6.796875 1.3203125 6.796875 0.125 9.75 C-0.26429688 10.73484375 -0.65359375 11.7196875 -1.0546875 12.734375 C-1.36664063 13.48203125 -1.67859375 14.2296875 -2 15 C-2.66 14.67 -3.32 14.34 -4 14 C-3.52188823 12.22888156 -3.0424722 10.45811517 -2.5625 8.6875 C-2.29566406 7.70136719 -2.02882813 6.71523437 -1.75390625 5.69921875 C-1.21920575 3.78482474 -0.62855462 1.88566385 0 0 Z " fill="#BCC4B4" transform="translate(277,70)"/>
<path d="M0 0 C0 0.66 0 1.32 0 2 C-0.886875 2.391875 -1.77375 2.78375 -2.6875 3.1875 C-6.12099103 5.06620264 -8.29000698 7.2147294 -11 10 C-11.66 10 -12.32 10 -13 10 C-11.21019997 5.44414539 -7.97723055 3.12984603 -3.8125 0.75 C-2 0 -2 0 0 0 Z " fill="#C3A150" transform="translate(138,63)"/>
<path d="M0 0 C0.66 0.66 1.32 1.32 2 2 C0.35 2.33 -1.3 2.66 -3 3 C-3 3.66 -3 4.32 -3 5 C-2.01 5 -1.02 5 0 5 C-0.33 5.99 -0.66 6.98 -1 8 C-1 7.34 -1 6.68 -1 6 C-2.98 6 -4.96 6 -7 6 C-7 4.68 -7 3.36 -7 2 C-4.69 2 -2.38 2 0 2 C0 1.34 0 0.68 0 0 Z " fill="#253922" transform="translate(513,143)"/>
<path d="M0 0 C3.16130459 4.21507278 3.3367697 5.06071112 3 10 C4.32 10.33 5.64 10.66 7 11 C4.69 11 2.38 11 0 11 C0 7.37 0 3.74 0 0 Z " fill="#263923" transform="translate(218,144)"/>
<path d="M0 0 C0.66 0.33 1.32 0.66 2 1 C1.6875 3.375 1.6875 3.375 1 6 C0.01 6.66 -0.98 7.32 -2 8 C-2 7.34 -2 6.68 -2 6 C-2.99 6 -3.98 6 -5 6 C-5 5.34 -5 4.68 -5 4 C-3.37373596 2.61767557 -1.7074998 1.28062485 0 0 Z " fill="#223D27" transform="translate(159,96)"/>
<path d="M0 0 C-1.91683709 1.91683709 -5.36557292 1.42750305 -7.96875 1.62109375 C-8.97421875 1.80865234 -8.97421875 1.80865234 -10 2 C-10.33 2.66 -10.66 3.32 -11 4 C-13.475 3.01 -13.475 3.01 -16 2 C-16 1.34 -16 0.68 -16 0 C-13.7089095 -0.19441368 -11.41709663 -0.38033135 -9.125 -0.5625 C-7.21074219 -0.71912109 -7.21074219 -0.71912109 -5.2578125 -0.87890625 C-2 -1 -2 -1 0 0 Z " fill="#374529" transform="translate(147,97)"/>
<path d="M0 0 C0.33 0 0.66 0 1 0 C1.18175781 0.67546875 1.36351562 1.3509375 1.55078125 2.046875 C1.80214844 2.93890625 2.05351562 3.8309375 2.3125 4.75 C2.55613281 5.63171875 2.79976562 6.5134375 3.05078125 7.421875 C4.02125331 10.05772505 5.21005644 11.85407326 7 14 C5.1875 13.8125 5.1875 13.8125 3 13 C0.31433902 9.51858762 -0.61292009 6.354649 -1 2 C-0.67 1.34 -0.34 0.68 0 0 Z " fill="#AF7F3A" transform="translate(128,82)"/>
<path d="M0 0 C0.33 0.66 0.66 1.32 1 2 C-4.445 3.485 -4.445 3.485 -10 5 C-10.33 4.01 -10.66 3.02 -11 2 C-7.36576791 -0.32590854 -4.22911669 -0.16265833 0 0 Z " fill="#D6A842" transform="translate(143,68)"/>
<path d="M0 0 C3.3 0 6.6 0 10 0 C8.6875 2.5 8.6875 2.5 7 5 C6.01 5 5.02 5 4 5 C1.8125 2.5 1.8125 2.5 0 0 Z " fill="#E9E9D8" transform="translate(221,53)"/>
<path d="M0 0 C0.66 0.33 1.32 0.66 2 1 C2.309375 1.94875 2.61875 2.8975 2.9375 3.875 C3.97151659 6.91622528 4.71280168 7.9207288 7 10 C7 10.66 7 11.32 7 12 C6.01 12.33 5.02 12.66 4 13 C3.73445313 12.30132812 3.46890625 11.60265625 3.1953125 10.8828125 C2.84210938 9.97273437 2.48890625 9.06265625 2.125 8.125 C1.77695312 7.22007812 1.42890625 6.31515625 1.0703125 5.3828125 C0.11469105 2.87782993 0.11469105 2.87782993 -2 1 C-1.34 0.67 -0.68 0.34 0 0 Z " fill="#2B4027" transform="translate(280,142)"/>
<path d="M0 0 C3.63 0 7.26 0 11 0 C10.67 0.99 10.34 1.98 10 3 C6.6875 3.1875 6.6875 3.1875 3 3 C2.01 2.01 1.02 1.02 0 0 Z " fill="#C88938" transform="translate(137,103)"/>
<path d="M0 0 C0.33 0 0.66 0 1 0 C1.95717033 4.78585167 2.31859498 9.1414266 2 14 C1.01 14.99 0.02 15.98 -1 17 C-0.67 11.39 -0.34 5.78 0 0 Z " fill="#33442A" transform="translate(168,76)"/>
<path d="M0 0 C0.33 0.66 0.66 1.32 1 2 C2.093125 1.835 3.18625 1.67 4.3125 1.5 C9.17229229 0.84104511 10.50256572 0.75128286 15 3 C8.73 3 2.46 3 -4 3 C-2.68 2.01 -1.36 1.02 0 0 Z " fill="#DAE1D0" transform="translate(449,113)"/>
<path d="M0 0 C2.64 0 5.28 0 8 0 C8 1.98 8 3.96 8 6 C7.67 5.01 7.34 4.02 7 3 C4.03 2.505 4.03 2.505 1 2 C0.67 3.32 0.34 4.64 0 6 C0 4.02 0 2.04 0 0 Z " fill="#354126" transform="translate(154,151)"/>
<path d="M0 0 C0.99 0.33 1.98 0.66 3 1 C0.52307741 3.28639008 -0.70466178 3.97637294 -4.125 4.25 C-7 4 -7 4 -9 3 C-9 2.34 -9 1.68 -9 1 C-7.88625 1.020625 -6.7725 1.04125 -5.625 1.0625 C-2.16784079 1.26380718 -2.16784079 1.26380718 0 0 Z " fill="#D6AB5D" transform="translate(145,88)"/>
<path d="M0 0 C0.66 0 1.32 0 2 0 C2 1.32 2 2.64 2 4 C3.98 4 5.96 4 8 4 C8 4.66 8 5.32 8 6 C5.36 6 2.72 6 0 6 C0 4.02 0 2.04 0 0 Z " fill="#8A6E37" transform="translate(234,151)"/>
<path d="M0 0 C3.4375 0.1875 3.4375 0.1875 7 1 C8.4375 3.0625 8.4375 3.0625 9 5 C6.69 4.67 4.38 4.34 2 4 C2 3.34 2 2.68 2 2 C1.01 1.67 0.02 1.34 -1 1 C-0.67 0.67 -0.34 0.34 0 0 Z " fill="#756D3A" transform="translate(297,143)"/>
<path d="M0 0 C0.33 0.66 0.66 1.32 1 2 C-3.51617599 2.07654536 -7.59085217 2.10228696 -12 1 C-12 0.67 -12 0.34 -12 0 C-7.73933592 -0.7518819 -4.1734802 -1.35024359 0 0 Z " fill="#424B2C" transform="translate(143,107)"/>
<path d="M0 0 C0.66 0.33 1.32 0.66 2 1 C0.52307692 5.67692308 0.52307692 5.67692308 -2.125 7.3125 C-3.053125 7.6528125 -3.053125 7.6528125 -4 8 C-3.40072174 4.64404172 -2.15377564 2.62198774 0 0 Z " fill="#CFA43F" transform="translate(158,90)"/>
<path d="M0 0 C3.375 1.3125 3.375 1.3125 5.375 3.3125 C1.99225734 4.44008089 0.60721777 4.13000262 -2.8125 3.375 C-3.71355469 3.18035156 -4.61460937 2.98570313 -5.54296875 2.78515625 C-6.23003906 2.62917969 -6.91710937 2.47320312 -7.625 2.3125 C-4.078125 -0.7734375 -4.078125 -0.7734375 0 0 Z " fill="#B08D42" transform="translate(146.625,68.6875)"/>
<path d="M0 0 C1.21236328 0.01353516 1.21236328 0.01353516 2.44921875 0.02734375 C3.37154297 0.04474609 3.37154297 0.04474609 4.3125 0.0625 C4.3125 0.3925 4.3125 0.7225 4.3125 1.0625 C2.0025 1.3925 -0.3075 1.7225 -2.6875 2.0625 C-3.0175 3.3825 -3.3475 4.7025 -3.6875 6.0625 C-5.0075 5.7325 -6.3275 5.4025 -7.6875 5.0625 C-7.0275 4.7325 -6.3675 4.4025 -5.6875 4.0625 C-5.6875 3.4025 -5.6875 2.7425 -5.6875 2.0625 C-6.3475 1.7325 -7.0075 1.4025 -7.6875 1.0625 C-4.80538698 0.10179566 -2.98899956 -0.04331883 0 0 Z " fill="#AA8640" transform="translate(140.6875,53.9375)"/>
<path d="M0 0 C0.66 0.33 1.32 0.66 2 1 C1.02983736 3.91048792 -0.17798895 6.45397818 -1.5625 9.1875 C-2.01753906 10.08855469 -2.47257812 10.98960937 -2.94140625 11.91796875 C-3.29074219 12.60503906 -3.64007813 13.29210937 -4 14 C-5.305239 10.08428299 -4.32239848 8.96107003 -2.5625 5.3125 C-2.08941406 4.31863281 -1.61632812 3.32476562 -1.12890625 2.30078125 C-0.75636719 1.54152344 -0.38382812 0.78226563 0 0 Z " fill="#9A7E47" transform="translate(103,143)"/>
<path d="M0 0 C0.99 0 1.98 0 3 0 C3 1.65 3 3.3 3 5 C1.02 5.99 1.02 5.99 -1 7 C-0.67 4.69 -0.34 2.38 0 0 Z " fill="#243E29" transform="translate(296,145)"/>
<path d="M0 0 C-3.44175522 2.14699969 -5.7720292 2.09856795 -9.75 1.625 C-10.73484375 1.51414062 -11.7196875 1.40328125 -12.734375 1.2890625 C-13.48203125 1.19367188 -14.2296875 1.09828125 -15 1 C-15 0.67 -15 0.34 -15 0 C-9.76528314 -0.75612577 -5.22745859 -1.2063366 0 0 Z " fill="#BFC4B5" transform="translate(359,112)"/>
<path d="M0 0 C2.125 0.375 2.125 0.375 4 1 C1.6875 3.5 1.6875 3.5 -1 6 C-1.99 6 -2.98 6 -4 6 C-2.84826645 3.53199953 -1.95216435 1.95216435 0 0 Z " fill="#D2A860" transform="translate(123,61)"/>
<path d="M0 0 C0.33 0 0.66 0 1 0 C2.12029814 5.48946087 1.79217969 8.83430559 0 14 C-0.66 13.34 -1.32 12.68 -2 12 C-1.7578125 9.1796875 -1.7578125 9.1796875 -1.125 5.875 C-0.92132813 4.77929688 -0.71765625 3.68359375 -0.5078125 2.5546875 C-0.34023438 1.71164063 -0.17265625 0.86859375 0 0 Z " fill="#BBC2B1" transform="translate(314,56)"/>
<path d="M0 0 C2.97 0.495 2.97 0.495 6 1 C6 1.66 6 2.32 6 3 C4.68 3 3.36 3 2 3 C1.67 3.66 1.34 4.32 1 5 C0.34 4.67 -0.32 4.34 -1 4 C-0.67 2.68 -0.34 1.36 0 0 Z " fill="#1E3B2A" transform="translate(256,146)"/>
<path d="M0 0 C0 0.66 0 1.32 0 2 C-0.99 2 -1.98 2 -3 2 C-3.33 2.99 -3.66 3.98 -4 5 C-4.66 5 -5.32 5 -6 5 C-6.33 5.99 -6.66 6.98 -7 8 C-6.6875 5.125 -6.6875 5.125 -6 2 C-3 0 -3 0 0 0 Z " fill="#354328" transform="translate(404,144)"/>
<path d="M0 0 C1.32 0.33 2.64 0.66 4 1 C3.34 2.65 2.68 4.3 2 6 C0.68 6 -0.64 6 -2 6 C-1.34 4.02 -0.68 2.04 0 0 Z " fill="#C18A3D" transform="translate(118,67)"/>
<path d="M0 0 C2.1385485 2.1385485 2.42655063 3.13275314 3 6 C1.35 6 -0.3 6 -2 6 C-1.34 4.02 -0.68 2.04 0 0 Z " fill="#2F4225" transform="translate(279,146)"/>
<path d="M0 0 C3 3.75 3 3.75 3 6 C1.35 6 -0.3 6 -2 6 C-1.34 4.02 -0.68 2.04 0 0 Z " fill="#2F3E23" transform="translate(103,146)"/>
<path d="M0 0 C7.75 0.75 7.75 0.75 10 3 C5.82412255 4.39195915 3.86525224 2.82323219 0 1 C0 0.67 0 0.34 0 0 Z " fill="#DADCCD" transform="translate(352,55)"/>
<path d="M0 0 C1.32 0.33 2.64 0.66 4 1 C4.33 2.32 4.66 3.64 5 5 C2.525 4.01 2.525 4.01 0 3 C0 2.01 0 1.02 0 0 Z " fill="#303F26" transform="translate(147,66)"/>
</svg>
